<svg width="48" height="48" xmlns="http://www.w3.org/2000/svg">
  <g transform="translate(-130,-580)" fill="lightgray">
    <path d="M 162.27101,618.73499 C 161.24438,618.68408 160.22202,618.51864 159.20391,618.23866 C 158.2282,617.97564 157.26523,617.60657 156.31499,617.13145 C 155.39867,616.6733 154.52055,616.1303 153.6806,615.50246 L 151.26256,613.59348 C 150.3208,613.22865 149.48933,612.76202 148.76816,612.19356 C 148.05548,611.6336 147.45309,610.98454 146.961,610.24641 C 146.46891,609.51675 146.09984,608.7065 145.85379,607.81564 C 145.60774,606.92479 145.48473,605.96606 145.48473,604.93944 C 145.48473,602.41961 146.28013,600.28792 147.87095,598.54437 C 149.46176,596.80085 151.47891,595.92909 153.9224,595.92907 C 156.37437,595.92909 158.39577,596.80085 159.98659,598.54437 C 161.57739,600.28792 162.3728,602.41961 162.37281,604.93944 C 162.3728,606.98418 161.81282,608.81467 160.69291,610.43094 C 159.57296,612.04721 158.02033,613.15229 156.03501,613.7462 C 157.6046,616.59694 159.68326,618.10291 162.27101,618.26412 L 162.27101,618.73499 z M 156.27681,613.09715 C 157.80398,612.73232 159.11481,611.80116 160.2093,610.30367 C 161.30377,608.8062 161.85101,607.01812 161.85102,604.93944 C 161.85101,602.74202 161.20408,600.82455 159.91023,599.18706 C 158.61636,597.5496 156.96828,596.63329 154.96598,596.43814 C 156.56102,596.76904 157.79338,597.66413 158.66303,599.12343 C 159.53266,600.58275 159.96748,602.52142 159.9675,604.93944 C 159.96748,609.19859 158.73726,611.91783 156.27681,613.09715 L 156.27681,613.09715 z M 152.87883,596.43814 C 150.88501,596.63329 149.24116,597.5496 147.9473,599.18706 C 146.65344,600.82455 146.00651,602.74202 146.00651,604.93944 C 146.00651,607.01812 146.55374,608.8062 147.64823,610.30367 C 148.7427,611.80116 150.05354,612.73232 151.58073,613.09715 C 149.11178,611.91783 147.8773,609.19859 147.8773,604.93944 C 147.8773,602.52142 148.31425,600.58275 149.18814,599.12343 C 150.06203,597.66413 151.29225,596.76904 152.87883,596.43814 L 152.87883,596.43814 z M 153.9224,613.09715 C 155.71259,613.09715 157.08281,612.35901 158.03307,610.88273 C 158.9833,609.40646 159.45843,607.42536 159.45844,604.93944 C 159.45843,602.44506 158.98542,600.47457 158.03943,599.02798 C 157.09341,597.58142 155.72108,596.85813 153.9224,596.85811 C 152.1322,596.85813 150.7641,597.58142 149.8181,599.02798 C 148.87209,600.47457 148.39909,602.44506 148.39909,604.93944 C 148.39909,607.42536 148.87422,609.40646 149.82446,610.88273 C 150.7747,612.35901 152.14068,613.09715 153.9224,613.09715 L 153.9224,613.09715 z M 158.9621,617.69142 C 157.63005,616.97873 156.48042,615.7188 155.51322,613.91164 C 154.82597,613.97952 154.28722,614.01345 153.89696,614.01345 C 153.60847,614.01345 153.20971,613.988 152.70066,613.93709 C 154.29571,615.48124 156.38285,616.73269 158.9621,617.69142 L 158.9621,617.69142 z" />
  </g>
</svg>
